#!OML:ASF G:\JayActor3\Patient Classification 1\Patient 1\Session 6\male.ASF
:FULLY-SPECIFIED
:DEGREES
917
root 6.07639 16.4798 -19.5648 173.06 -38.3349 -178.553
lowerback 7.4023 -2.52012 -0.944672
upperback -3.0965 -3.47406 0.203452
thorax -7.33487 -1.65882 1.21554
lowerneck -6.03447 5.25025 5.66985
upperneck 12.0089 7.18728 -7.31208
head 5.06572 3.24065 -2.74138
rclavicle -2.78174e-014 -8.64713e-015
rhumerus -49.1175 5.60956 -75.9607
rradius 41.7457
rwrist 0.173782
rhand -11.8917 0.258868
rfingers 7.12502
rthumb 14.1613 -29.2385
lclavicle -2.78174e-014 -8.64713e-015
lhumerus -31.8278 -11.3294 73.3542
lradius 36.0329
lwrist 24.0662
lhand -13.0805 6.51701
lfingers 7.12502
lthumb 13.0156 36.091
rfemur -9.53798 6.4735 11.9828
rtibia 62.1646
rfoot 5.39407 -14.5028
rtoes 3.78802
lfemur -1.37937 16.3798 -15.4453
ltibia 18.0814
lfoot -9.99834 14.7805
ltoes 0.518285
918
root 6.02264 16.4797 -19.5622 173.088 -38.2346 -178.687
lowerback 7.53773 -2.55972 -1.15574
upperback -3.03704 -3.5519 0.151641
thorax -7.33843 -1.68751 1.29451
lowerneck -6.04401 5.27182 5.66501
upperneck 11.9852 7.22385 -7.39129
head 5.06522 3.25274 -2.7625
rclavicle -1.94436e-014 -3.67752e-015
rhumerus -49.352 5.92604 -76.1213
rradius 42.2685
rwrist -0.0379082
rhand -11.6489 0.203121
rfingers 7.12502
rthumb 14.3953 -29.2777
lclavicle -1.94436e-014 -3.67752e-015
lhumerus -31.4427 -11.1833 73.0551
lradius 36.1938
lwrist 24.1298
lhand -13.1234 6.53452
lfingers 7.12502
lthumb 12.9742 36.1111
rfemur -10.4675 5.9826 11.7923
rtibia 63.1655
rfoot 4.69122 -14.2431
rtoes 3.81851
lfemur -1.08362 16.5122 -15.6464
ltibia 17.933
lfoot -10.1387 14.7368
ltoes 0.575506
919
root 5.97027 16.4797 -19.5603 173.13 -38.1542 -178.798
lowerback 7.65061 -2.60223 -1.3441
upperback -2.9888 -3.63199 0.100776
thorax -7.34183 -1.71861 1.36144
lowerneck -6.05568 5.29643 5.66407
upperneck 11.9718 7.26395 -7.46692
head 5.06856 3.26666 -2.78278
rclavicle -1.56046e-014 1.09332e-014
rhumerus -49.6006 6.23417 -76.2698
rradius 42.8055
rwrist -0.245221
rhand -11.3778 0.181886
rfingers 7.12502
rthumb 14.6565 -29.2801
lclavicle -1.56046e-014 1.09332e-014
lhumerus -31.0815 -11.0363 72.7656
lradius 36.3529
lwrist 24.1721
lhand -13.1409 6.55299
lfingers 7.12502
lthumb 12.9574 36.1307
rfemur -11.3957 5.48255 11.6398
rtibia 64.048
rfoot 3.89152 -13.8346
rtoes 3.63344
lfemur -0.843487 16.6156 -15.8385
ltibia 17.8173
lfoot -10.29 14.7016
ltoes 0.622108
920
root 5.91897 16.4794 -19.559 173.183 -38.0968 -178.897
lowerback 7.74585 -2.6487 -1.51114
upperback -2.94977 -3.71587 0.0473052
thorax -7.34594 -1.7528 1.41376
lowerneck -6.06036 5.32048 5.66186
upperneck 11.9603 7.30286 -7.53657
head 5.07099 3.28038 -2.80125
rclavicle 3.60421e-014 5.46658e-015
rhumerus -49.8644 6.5303 -76.4047
rradius 43.3525
rwrist -0.451858
rhand -11.0968 0.198389
rfingers 7.12502
rthumb 14.9272 -29.2437
lclavicle 3.60421e-014 5.46658e-015
lhumerus -30.7503 -10.8982 72.4914
lradius 36.5141
lwrist 24.2152
lhand -13.1715 6.56159
lfingers 7.12502
lthumb 12.9278 36.1411
rfemur -12.3078 4.98288 11.5214
rtibia 64.8086
rfoot 3.03881 -13.3373
rtoes 3.25103
lfemur -0.651912 16.6826 -16.0282
ltibia 17.7416
lfoot -10.4594 14.6782
ltoes 0.675242
921
root 5.8686 16.4787 -19.5585 173.241 -38.0525 -178.982
lowerback 7.83001 -2.69371 -1.65665
upperback -2.91974 -3.7962 -0.00838946
thorax -7.3546 -1.78638 1.45108
lowerneck -6.05961 5.3426 5.66532
upperneck 11.9543 7.3388 -7.60616
head 5.07422 3.29284 -2.82095
rclavicle -3.3048e-015 -1.2921e-015
rhumerus -50.1349 6.79014 -76.507
rradius 43.8879
rwrist -0.617901
rhand -10.7968 0.250685
rfingers 7.12502
rthumb 15.2162 -29.1698
lclavicle -3.3048e-015 -1.2921e-015
lhumerus -30.4483 -10.7814 72.2373
lradius 36.6737
lwrist 24.2594
lhand -13.2093 6.55851
lfingers 7.12502
lthumb 12.8914 36.1404
rfemur -13.1959 4.49422 11.4367
rtibia 65.4485
rfoot 2.12348 -12.7634
rtoes 2.67487
lfemur -0.499647 16.7216 -16.2123
ltibia 17.7066
lfoot -10.6488 14.6657
ltoes 0.74042
922
root 5.81873 16.4771 -19.5589 173.291 -38.0134 -179.046
lowerback 7.90683 -2.73384 -1.77192
upperback -2.89507 -3.86712 -0.0642096
thorax -7.3668 -1.81678 1.47002
lowerneck -6.05417 5.35986 5.66958
upperneck 11.9551 7.36812 -7.67448
head 5.07828 3.30204 -2.84098
rclavicle 1.37534e-013 1.67973e-014
rhumerus -50.4207 7.02229 -76.5762
rradius 44.4238
rwrist -0.744953
rhand -10.4941 0.327234
rfingers 7.12502
rthumb 15.5078 -29.0709
lclavicle 1.37534e-013 1.67973e-014
lhumerus -30.1754 -10.6884 72.0092
lradius 36.8317
lwrist 24.3116
lhand -13.26 6.54614
lfingers 7.12502
lthumb 12.8426 36.1311
rfemur -14.0479 4.01572 11.3888
rtibia 65.9668
rfoot 1.15696 -12.1295
rtoes 1.84631
lfemur -0.373361 16.7425 -16.3799
ltibia 17.7126
lfoot -10.8706 14.6612
ltoes 0.851797
923
root 5.76997 16.475 -19.5601 173.335 -37.9859 -179.091
lowerback 7.97862 -2.76995 -1.86439
upperback -2.87708 -3.93043 -0.118128
thorax -7.38474 -1.84442 1.47724
lowerneck -6.03756 5.36948 5.67214
upperneck 11.9509 7.38742 -7.74406
head 5.07823 3.30649 -2.86219
rclavicle -9.93923e-017 5.1684e-015
rhumerus -50.7198 7.22866 -76.6131
rradius 44.9621
rwrist -0.830455
rhand -10.2155 0.407989
rfingers 7.12502
rthumb 15.7761 -28.9691
lclavicle -9.93923e-017 5.1684e-015
lhumerus -29.929 -10.6242 71.8092
lradius 36.9876
lwrist 24.3679
lhand -13.3202 6.51989
lfingers 7.12502
lthumb 12.7845 36.1084
rfemur -14.8667 3.54697 11.378
rtibia 66.3649
rfoot 0.138934 -11.4513
rtoes 0.854352
lfemur -0.282148 16.7609 -16.5286
ltibia 17.7627
lfoot -11.1096 14.6463
ltoes 0.96538
924
root 5.72201 16.472 -19.5623 173.369 -37.9689 -179.12
lowerback 8.04872 -2.80119 -1.93884
upperback -2.86241 -3.98538 -0.17015
thorax -7.40652 -1.8687 1.47537
lowerneck -6.01688 5.37252 5.6721
upperneck 11.9491 7.398 -7.81244
head 5.07744 3.30663 -2.88335
rclavicle 3.11346e-014 6.36111e-015
rhumerus -51.035 7.42076 -76.6195
rradius 45.5101
rwrist -0.875866
rhand -9.97095 0.487613
rfingers 7.12502
rthumb 16.0116 -28.8707
lclavicle 3.11346e-014 6.36111e-015
lhumerus -29.7088 -10.5868 71.6378
lradius 37.1437
lwrist 24.4286
lhand -13.3721 6.50348
lfingers 7.12502
lthumb 12.7345 36.0952
rfemur -15.6393 3.09379 11.399
rtibia 66.6408
rfoot -0.921418 -10.7303
rtoes -0.284312
lfemur -0.214518 16.7919 -16.6567
ltibia 17.8582
lfoot -11.3719 14.606
ltoes 1.09772
925
root 5.67478 16.4681 -19.5654 173.376 -37.9542 -179.116
lowerback 8.12369 -2.82775 -1.98396
upperback -2.84958 -4.03051 -0.213747
thorax -7.43474 -1.88917 1.46505
lowerneck -5.99546 5.37105 5.6657
upperneck 11.9505 7.4028 -7.87791
head 5.07675 3.30375 -2.90303
rclavicle 1.37857e-013 2.0276e-014
rhumerus -51.3629 7.61172 -76.5976
rradius 46.0707
rwrist -0.878285
rhand -9.76796 0.56612
rfingers 7.12502
rthumb 16.2071 -28.7764
lclavicle 1.37857e-013 2.0276e-014
lhumerus -29.5179 -10.5696 71.4975
lradius 37.3028
lwrist 24.4979
lhand -13.4166 6.49471
lfingers 7.12502
lthumb 12.6916 36.0891
rfemur -16.3634 2.67303 11.4696
rtibia 66.7939
rfoot -1.97063 -9.99244
rtoes -1.50317
lfemur -0.162397 16.8416 -16.746
ltibia 17.9962
lfoot -11.6476 14.5413
ltoes 1.20984
926
root 5.62823 16.4638 -19.5697 173.376 -37.9432 -179.096
lowerback 8.19091 -2.85073 -2.01549
upperback -2.83688 -4.06888 -0.252249
thorax -7.4594 -1.90692 1.45118
lowerneck -5.9778 5.36755 5.65393
upperneck 11.9541 7.40489 -7.93904
head 5.07684 3.29946 -2.92059
rclavicle -2.72335e-014 -6.95746e-015
rhumerus -51.6934 7.80633 -76.5513
rradius 46.6423
rwrist -0.839034
rhand -9.61281 0.634104
rfingers 7.12502
rthumb 16.3565 -28.6962
lclavicle -2.72335e-014 -6.95746e-015
lhumerus -29.3554 -10.5686 71.3851
lradius 37.4678
lwrist 24.5682
lhand -13.4631 6.48423
lfingers 7.12502
lthumb 12.6467 36.0814
rfemur -17.0459 2.29438 11.5753
rtibia 66.8249
rfoot -2.97232 -9.26065
rtoes -2.73177
lfemur -0.131312 16.9166 -16.8112
ltibia 18.1712
lfoot -11.9187 14.4481
ltoes 1.25699
927
root 5.58235 16.4591 -19.575 173.372 -37.9361 -179.067
lowerback 8.25568 -2.87291 -2.04364
upperback -2.8275 -4.10544 -0.284238
thorax -7.486 -1.92372 1.44201
lowerneck -5.9614 5.36733 5.63722
upperneck 11.9632 7.41153 -7.99585
head 5.07884 3.29723 -2.93562
rclavicle 1.03418e-013 9.14409e-015
rhumerus -52.0264 8.01921 -76.483
rradius 47.2276
rwrist -0.75658
rhand -9.48679 0.701247
rfingers 7.12502
rthumb 16.4778 -28.619
lclavicle 1.03418e-013 9.14409e-015
lhumerus -29.2314 -10.5809 71.3005
lradius 37.6429
lwrist 24.6423
lhand -13.5054 6.47727
lfingers 7.12502
lthumb 12.606 36.0769
rfemur -17.69 1.96692 11.7072
rtibia 66.7393
rfoot -3.89394 -8.56431
rtoes -3.8781
lfemur -0.117947 17.013 -16.8607
ltibia 18.3766
lfoot -12.1809 14.3306
ltoes 1.25443
928
root 5.53715 16.4541 -19.5814 173.371 -37.9351 -179.044
lowerback 8.31449 -2.89527 -2.07942
upperback -2.81761 -4.14283 -0.313622
thorax -7.50787 -1.9406 1.4396
lowerneck -5.94027 5.36676 5.61969
upperneck 11.9628 7.41804 -8.05692
head 5.07721 3.29497 -2.952
rclavicle -7.23079e-015 -9.93923e-016
rhumerus -52.3559 8.25427 -76.3979
rradius 47.829
rwrist -0.64403
rhand -9.3827 0.772958
rfingers 7.12502
rthumb 16.578 -28.5389
lclavicle -7.23079e-015 -9.93923e-016
lhumerus -29.1403 -10.6084 71.2413
lradius 37.8252
lwrist 24.7203
lhand -13.5518 6.46425
lfingers 7.12502
lthumb 12.5613 36.0666
rfemur -18.2962 1.69109 11.8514
rtibia 66.5438
rfoot -4.71781 -7.93123
rtoes -4.84111
lfemur -0.115825 17.1197 -16.9073
ltibia 18.6019
lfoot -12.4361 14.1969
ltoes 1.22982
929
root 5.49278 16.4487 -19.5886 173.377 -37.9446 -179.028
lowerback 8.3719 -2.91944 -2.12746
upperback -2.81073 -4.18394 -0.33978
thorax -7.53092 -1.95861 1.44797
lowerneck -5.91446 5.36973 5.60545
upperneck 11.9599 7.42949 -8.12244
head 5.07465 3.29512 -2.97006
rclavicle 2.71838e-014 1.68967e-014
rhumerus -52.6787 8.51058 -76.2939
rradius 48.4378
rwrist -0.501642
rhand -9.30892 0.833472
rfingers 7.12502
rthumb 16.6491 -28.4725
lclavicle 2.71838e-014 1.68967e-014
lhumerus -29.089 -10.6514 71.209
lradius 38.0169
lwrist 24.7998
lhand -13.6023 6.44436
lfingers 7.12502
lthumb 12.5126 36.0497
rfemur -18.8665 1.46595 12.002
rtibia 66.2478
rfoot -5.44125 -7.37822
rtoes -5.63568
lfemur -0.121903 17.2225 -16.9571
ltibia 18.8362
lfoot -12.6744 14.0602
ltoes 1.16667
930
root 5.44923 16.4431 -19.5969 173.383 -37.9632 -179.012
lowerback 8.42677 -2.945 -2.18091
upperback -2.80507 -4.22729 -0.361991
thorax -7.55301 -1.97737 1.46374
lowerneck -5.88685 5.37342 5.59347
upperneck 11.9555 7.44189 -8.18993
head 5.0716 3.29579 -2.98909
rclavicle 7.42958e-014 1.78906e-015
rhumerus -52.9966 8.78888 -76.1729
rradius 49.0627
rwrist -0.343204
rhand -9.24427 0.879331
rfingers 7.12502
rthumb 16.7113 -28.4214
lclavicle 7.42958e-014 1.78906e-015
lhumerus -29.0724 -10.7123 71.2024
lradius 38.2129
lwrist 24.8764
lhand -13.6424 6.42442
lfingers 7.12502
lthumb 12.4739 36.0322
rfemur -19.3987 1.28329 12.1611
rtibia 65.8586
rfoot -6.06641 -6.9158
rtoes -6.25669
lfemur -0.128429 17.3158 -17.0041
ltibia 19.0699
lfoot -12.9055 13.9262
ltoes 1.095
931
root 5.40666 16.4373 -19.606 173.393 -37.994 -179.003
lowerback 8.48306 -2.97124 -2.24614
upperback -2.80166 -4.2729 -0.381288
thorax -7.57714 -1.99653 1.48965
lowerneck -5.86067 5.37817 5.57892
upperneck 11.9536 7.45577 -8.25555
head 5.06947 3.29708 -3.00697
rclavicle 8.10048e-015 -7.95139e-015
rhumerus -53.3053 9.08634 -76.0356
rradius 49.6987
rwrist -0.185179
rhand -9.19268 0.884071
rfingers 7.12502
rthumb 16.761 -28.4124
lclavicle 8.10048e-015 -7.95139e-015
lhumerus -29.088 -10.7931 71.2237
lradius 38.4088
lwrist 24.9508
lhand -13.6778 6.39846
lfingers 7.12502
lthumb 12.4398 36.0083
rfemur -19.8954 1.13637 12.3194
rtibia 65.3854
rfoot -6.60079 -6.54966
rtoes -6.72193
lfemur -0.131554 17.3956 -17.0548
ltibia 19.2958
lfoot -13.1313 13.7976
ltoes 1.01371
